PathFileType	4	(X/Y/Z)	./resultDataOpenSim/trcMotMarkerGrf/sub10/qtm-14-03.trc
DataRate	CameraRate	NumFrames	NumMarkers	Units	OrigDataRate	OrigDataStartFrame	OrigNumFrames
250.000000	250.000000	10	24	m	250.000000	61	484
Frame#	Time	L.Toe.Tip			R.Toe.Tip			L.Ankle.Lat			R.Ankle.Lat			L.Ankle.Med			R.Ankle.Med			L.Heel			R.Heel			L.Knee.Lat			R.Knee.Lat			L.Knee.Med			R.Knee.Med			L.Thigh.Upper			R.Thigh.Upper			L.ASIS			R.ASIS			V.Sacral			L.Acromium			R.Acromium			C7			L.Elbow			R.Elbow			L.Wrist.Lat			R.Wrist.Lat
		X1	Y1	Z1	X2	Y2	Z2	X3	Y3	Z3	X4	Y4	Z4	X5	Y5	Z5	X6	Y6	Z6	X7	Y7	Z7	X8	Y8	Z8	X9	Y9	Z9	X10	Y10	Z10	X11	Y11	Z11	X12	Y12	Z12	X13	Y13	Z13	X14	Y14	Z14	X15	Y15	Z15	X16	Y16	Z16	X17	Y17	Z17	X18	Y18	Z18	X19	Y19	Z19	X20	Y20	Z20	X21	Y21	Z21	X22	Y22	Z22	X23	Y23	Z23	X24	Y24	Z24

61	0.24	-1.4407173	0.075780338	-0.19313086	-0.77471022	0.039154704	-0.032023808	-1.4296963	0.2134564	-0.22579167	-0.90857839	0.050604419	0.02495228	-1.3985955	0.20627197	-0.14791305	-0.90059356	0.081737295	-0.060294824	-1.4664075	0.26449753	-0.17723415	-0.96628747	0.028423525	-0.018210579	-1.1134228	0.40997372	-0.2515794	-0.9003658	0.45225449	0.060224394	-1.0883861	0.36779088	-0.14016187	-0.90325124	0.4610393	-0.067454929	-1.0657431	0.78277185	-0.25930134	-1.0099413	0.85608031	0.1208451	-0.99307465	0.8922374	-0.20502722	-0.9537125	0.93639601	0.031998433	-1.1712579	0.93750261	-0.055509382	-0.99592758	1.383474	-0.23082555	-1.0497029	1.3862029	0.088512691	-1.1107563	1.4170419	-0.086277973	-1.0546606	1.0388329	-0.29867453	-1.2008725	1.071443	0.11859838	-0.86104713	0.90191368	-0.20974445	-1.1240228	0.85328882	0.19764045
62	0.244	-1.426884	0.077478522	-0.19384174	-0.77481841	0.039185169	-0.03197664	-1.4179438	0.21540574	-0.22530557	-0.90881244	0.050553203	0.025197844	-1.3868692	0.20828645	-0.14738923	-0.90050108	0.081835406	-0.060032535	-1.4559506	0.26584357	-0.17705255	-0.96640785	0.028390095	-0.018155936	-1.1009313	0.41077203	-0.25107123	-0.89844071	0.45228804	0.06091159	-1.0761142	0.36922733	-0.13970191	-0.90092084	0.46132544	-0.066827214	-1.0587957	0.78362453	-0.25873077	-1.0059304	0.8567154	0.12134931	-0.98671261	0.89333763	-0.20430143	-0.9482932	0.93745931	0.033100971	-1.1656629	0.93851389	-0.056289339	-0.98973013	1.384611	-0.23023527	-1.043174	1.3872017	0.089084768	-1.1045412	1.4183116	-0.08548796	-1.0496566	1.0403419	-0.29830186	-1.1929116	1.0717044	0.11959464	-0.85681145	0.90144265	-0.21108823	-1.1159642	0.85366921	0.19852093
63	0.248	-1.4128258	0.078950835	-0.19446594	-0.77496286	0.039230665	-0.031904052	-1.4060328	0.21717717	-0.22480354	-0.90909787	0.05049434	0.02544088	-1.3750849	0.21017891	-0.14682069	-0.90047867	0.081916064	-0.059756442	-1.4455789	0.2668391	-0.17646604	-0.96653696	0.028347362	-0.018119067	-1.0884467	0.41169224	-0.25053573	-0.89669479	0.45229723	0.061588403	-1.0641665	0.37053802	-0.13906463	-0.89883723	0.46140689	-0.066142475	-1.0520038	0.78462528	-0.25812467	-1.0018745	0.8574277	0.12182035	-0.98040359	0.89458796	-0.20362336	-0.94316634	0.93852621	0.034163424	-1.1601698	0.93958249	-0.057165215	-0.98360164	1.3857878	-0.22964662	-1.0367475	1.3882607	0.089657785	-1.0983877	1.4195839	-0.084719902	-1.0447036	1.0418915	-0.29794726	-1.1849969	1.0720377	0.12054298	-0.85275114	0.9010126	-0.21244709	-1.107861	0.85416139	0.19941714
64	0.252	-1.3986154	0.080180838	-0.1949672	-0.7751343	0.039288349	-0.031804059	-1.3939657	0.2187641	-0.22427403	-0.90937975	0.05042574	0.025681748	-1.3632729	0.21193383	-0.1462353	-0.90050044	0.081992969	-0.059446755	-1.4351904	0.26751591	-0.17565584	-0.9666671	0.028299549	-0.018095819	-1.0760943	0.41270333	-0.25000134	-0.89512306	0.45227844	0.062263021	-1.0525033	0.37177556	-0.13828572	-0.89693832	0.46131874	-0.065441252	-1.0453557	0.7857776	-0.2574907	-0.99775542	0.85822293	0.12223654	-0.97417939	0.89596545	-0.20300538	-0.93822648	0.93960296	0.035225795	-1.1548883	0.94062637	-0.058237649	-0.97753651	1.3870131	-0.22906092	-1.0304243	1.3893737	0.090236202	-1.092293	1.4208634	-0.083984281	-1.0398039	1.0434842	-0.29759099	-1.1771344	1.0724152	0.12144226	-0.84872558	0.90062933	-0.21375204	-1.0996762	0.8547627	0.20033318
65	0.256	-1.384189	0.081202426	-0.19538909	-0.77532408	0.039360201	-0.03167288	-1.3817208	0.22017548	-0.22370329	-0.90962892	0.050346503	0.025916109	-1.3514101	0.21356338	-0.14566329	-0.90054291	0.082079878	-0.059096232	-1.4246475	0.2679097	-0.17476847	-0.96679163	0.028252627	-0.018079963	-1.0638653	0.41379286	-0.24945517	-0.89372252	0.4522285	0.062960168	-1.0409223	0.37305184	-0.13742459	-0.89519467	0.4611596	-0.064753769	-1.038831	0.78708526	-0.25684573	-0.99357983	0.85908931	0.12258622	-0.9680322	0.89746516	-0.20243754	-0.93333972	0.94070621	0.036322548	-1.1498171	0.94161205	-0.059469776	-0.97153079	1.3882882	-0.2284837	-1.0242115	1.3905473	0.090829371	-1.0862527	1.42215	-0.083287225	-1.0349639	1.0451267	-0.2972379	-1.1693263	1.072826	0.12229799	-0.84461109	0.90031195	-0.21495558	-1.0914138	0.85547577	0.20125871
66	0.26	-1.3693934	0.082100232	-0.19584373	-0.77552836	0.039449112	-0.031510497	-1.3693181	0.2214387	-0.22310258	-0.9098308	0.050258823	0.026140529	-1.3394491	0.21509279	-0.14511695	-0.90059143	0.082181682	-0.058713613	-1.4138436	0.26805031	-0.17387857	-0.96690556	0.028209796	-0.018066614	-1.0516389	0.41496191	-0.24885754	-0.89250122	0.45214377	0.063694565	-1.0292628	0.37444728	-0.13650475	-0.89354792	0.46100987	-0.064083841	-1.032417	0.7885358	-0.2562136	-0.98935739	0.86000519	0.12289028	-0.96195006	0.89908076	-0.20191727	-0.92839689	0.94185472	0.037468393	-1.1447999	0.94257688	-0.060638087	-0.9655848	1.3896106	-0.22792126	-1.0180774	1.3917891	0.091427819	-1.0802586	1.423439	-0.08262752	-1.0301886	1.046827	-0.29690587	-1.1615717	1.073283	0.12312523	-0.84042788	0.90007701	-0.21608076	-1.0830639	0.85629094	0.20217879
67	0.264	-1.3541265	0.082950762	-0.19642325	-0.77574751	0.03955515	-0.031324285	-1.3568235	0.2225618	-0.22250654	-0.90997987	0.05016775	0.026356787	-1.3273366	0.21650757	-0.14458831	-0.90064156	0.082293312	-0.058316008	-1.4027379	0.2679728	-0.17306069	-0.96700658	0.028173868	-0.018051336	-1.0392987	0.4162321	-0.24817683	-0.89142058	0.45203512	0.064454445	-1.01749	0.3759843	-0.13552105	-0.89192182	0.46090781	-0.063420424	-1.0261175	0.79009468	-0.25562374	-0.98505707	0.860956	0.12319206	-0.95594038	0.90079035	-0.20145947	-0.92333757	0.9430604	0.038666587	-1.1396415	0.94352938	-0.06153871	-0.95970007	1.3909764	-0.22737151	-1.0119745	1.3930923	0.092010742	-1.0742962	1.424733	-0.0819945	-1.0254656	1.0485873	-0.29660123	-1.1538706	1.073796	0.12394043	-0.83632754	0.89991504	-0.21720022	-1.0745827	0.8571648	0.20306394
68	0.268	-1.3384429	0.083764613	-0.1971312	-0.77598224	0.039673786	-0.03112543	-1.3442621	0.22350427	-0.22194343	-0.91008288	0.05007804	0.026568397	-1.3149936	0.21772373	-0.14406438	-0.90070285	0.08240726	-0.057917268	-1.3913382	0.26770369	-0.17237209	-0.96709675	0.028146426	-0.018033558	-1.0268282	0.41763004	-0.24740511	-0.89036627	0.45192985	0.065210698	-1.0056619	0.3776408	-0.13446809	-0.89026866	0.46085858	-0.062759323	-1.0199423	0.79172209	-0.25510738	-0.98063779	0.86193246	0.1235119	-0.95002421	0.90255829	-0.20107744	-0.91817889	0.94431618	0.039902129	-1.1342503	0.94438455	-0.062195376	-0.95387402	1.392379	-0.22682761	-1.0058961	1.3944389	0.092576782	-1.0683498	1.4260455	-0.081377908	-1.0207696	1.0504028	-0.29631728	-1.1462253	1.0743534	0.12475523	-0.83248473	0.89979157	-0.21838057	-1.0659122	0.85802154	0.20386456
69	0.272	-1.3225819	0.084474573	-0.1978376	-0.77623101	0.03979799	-0.030920203	-1.331581	0.22418928	-0.22142111	-0.91015662	0.049993271	0.026777471	-1.3023443	0.21864	-0.14353846	-0.90079607	0.082521674	-0.057522692	-1.3796672	0.26723478	-0.17179304	-0.96718126	0.028127232	-0.018018694	-1.0143112	0.41915002	-0.24655036	-0.88922569	0.4518509	0.06593707	-0.99383499	0.37938941	-0.13334527	-0.88860811	0.46085733	-0.062110245	-1.0138818	0.79339616	-0.25467739	-0.97621833	0.86288581	0.12380005	-0.9442181	0.90435323	-0.2007636	-0.91308711	0.94558488	0.041120026	-1.1286527	0.94510854	-0.062755716	-0.94810588	1.3938104	-0.22628751	-0.99987173	1.3958133	0.093144617	-1.0624113	1.4273857	-0.080779633	-1.0160908	1.0522617	-0.29605763	-1.1386344	1.0749377	0.12558238	-0.82897808	0.89968118	-0.21964118	-1.0570386	0.85881491	0.20455449
70	0.276	-1.3068643	0.084977283	-0.19832782	-0.77649063	0.039923531	-0.030705775	-1.318716	0.2245401	-0.22093437	-0.91021759	0.04991755	0.026989184	-1.2894103	0.21921601	-0.14301002	-0.90093669	0.082640454	-0.057133774	-1.3677477	0.26653853	-0.17126465	-0.96726417	0.028114169	-0.018012139	-1.0018732	0.4207504	-0.24562741	-0.88797825	0.45180345	0.066623061	-0.9820092	0.38122772	-0.13214014	-0.88699457	0.46089681	-0.061480937	-1.0078816	0.79512094	-0.2543002	-0.97202354	0.86374497	0.12399269	-0.93848916	0.90617503	-0.20047577	-0.90837807	0.9468111	0.04223347	-1.1229416	0.94587561	-0.063254018	-0.94239994	1.3952657	-0.22575287	-0.99393078	1.3972116	0.093728328	-1.0564787	1.4287475	-0.080208119	-1.0114514	1.0541466	-0.29583989	-1.1310905	1.075541	0.12644093	-0.82573229	0.89959021	-0.22094653	-1.0480916	0.85964801	0.20521724
